<?xml version="1.0" encoding="UTF-8" standalone="no"?><!DOCTYPE svg PUBLIC "-//W3C//DTD SVG 1.1//EN" "http://www.w3.org/Graphics/SVG/1.1/DTD/svg11.dtd"><svg width="100%" height="100%" viewBox="0 0 367 100" version="1.1" xmlns="http://www.w3.org/2000/svg" xmlns:xlink="http://www.w3.org/1999/xlink" xml:space="preserve" xmlns:serif="http://www.serif.com/" style="fill-rule:evenodd;clip-rule:evenodd;stroke-linejoin:round;stroke-miterlimit:2;"><rect x="121.667" y="27.298" width="3.439" height="47.24" style="fill:#0a0d0f;fill-rule:nonzero;"/><path d="M160.675,45.76c-0.111,0.111 -0.217,0.206 -0.317,0.284c-0.1,0.078 -0.239,0.117 -0.417,0.117c-0.223,-0 -0.529,-0.151 -0.918,-0.451c-0.39,-0.3 -0.907,-0.629 -1.553,-0.985c-0.645,-0.356 -1.452,-0.684 -2.42,-0.985c-0.968,-0.3 -2.143,-0.45 -3.522,-0.45c-1.915,-0 -3.612,0.339 -5.092,1.018c-1.48,0.679 -2.726,1.652 -3.739,2.921c-1.013,1.269 -1.786,2.804 -2.32,4.607c-0.534,1.803 -0.801,3.828 -0.801,6.076c-0,2.337 0.272,4.407 0.818,6.21c0.545,1.803 1.318,3.322 2.32,4.557c1.001,1.235 2.214,2.176 3.639,2.821c1.424,0.646 3.004,0.968 4.741,0.968c1.602,0 2.943,-0.189 4.022,-0.567c1.08,-0.379 1.97,-0.79 2.671,-1.235c0.701,-0.446 1.258,-0.857 1.67,-1.236c0.411,-0.378 0.74,-0.567 0.984,-0.567c0.29,-0 0.512,0.111 0.668,0.334l0.868,1.068c-0.512,0.668 -1.157,1.291 -1.936,1.87c-0.779,0.578 -1.658,1.079 -2.638,1.502c-0.979,0.423 -2.042,0.751 -3.188,0.985c-1.146,0.233 -2.342,0.35 -3.589,0.35c-2.114,0 -4.045,-0.384 -5.792,-1.152c-1.747,-0.767 -3.25,-1.88 -4.507,-3.338c-1.258,-1.458 -2.237,-3.244 -2.938,-5.358c-0.701,-2.115 -1.052,-4.519 -1.052,-7.212c0,-2.537 0.334,-4.852 1.002,-6.944c0.667,-2.092 1.641,-3.895 2.921,-5.408c1.28,-1.514 2.849,-2.688 4.707,-3.522c1.859,-0.835 3.99,-1.252 6.394,-1.252c2.159,-0 4.078,0.345 5.759,1.035c1.68,0.69 3.143,1.624 4.39,2.804l-0.835,1.135Z" style="fill:#0a0d0f;fill-rule:nonzero;"/><path d="M181.722,40.786c1.87,-0 3.6,0.322 5.192,0.968c1.591,0.645 2.971,1.586 4.14,2.821c1.168,1.235 2.081,2.754 2.737,4.557c0.657,1.803 0.985,3.873 0.985,6.21c-0,0.489 -0.072,0.823 -0.217,1.001c-0.145,0.178 -0.373,0.267 -0.684,0.267l-24.005,0l0,0.635c0,2.492 0.29,4.685 0.868,6.577c0.579,1.891 1.403,3.477 2.471,4.757c1.068,1.28 2.359,2.242 3.873,2.888c1.513,0.645 3.205,0.968 5.074,0.968c1.67,0 3.116,-0.184 4.34,-0.551c1.225,-0.367 2.254,-0.779 3.089,-1.235c0.834,-0.456 1.496,-0.868 1.986,-1.235c0.49,-0.368 0.846,-0.551 1.068,-0.551c0.29,-0 0.512,0.111 0.668,0.334l0.868,1.068c-0.534,0.668 -1.241,1.291 -2.12,1.87c-0.879,0.578 -1.858,1.073 -2.938,1.485c-1.079,0.412 -2.237,0.74 -3.472,0.985c-1.235,0.245 -2.476,0.367 -3.722,0.367c-2.271,0 -4.341,-0.395 -6.21,-1.185c-1.87,-0.79 -3.472,-1.942 -4.808,-3.455c-1.335,-1.514 -2.364,-3.367 -3.088,-5.559c-0.723,-2.192 -1.085,-4.702 -1.085,-7.528c0,-2.382 0.34,-4.58 1.018,-6.594c0.679,-2.014 1.659,-3.75 2.938,-5.208c1.28,-1.458 2.849,-2.599 4.708,-3.422c1.858,-0.824 3.967,-1.235 6.326,-1.235Zm0.034,2.37c-1.714,-0 -3.25,0.267 -4.608,0.801c-1.357,0.534 -2.531,1.302 -3.522,2.304c-0.99,1.001 -1.791,2.203 -2.403,3.605c-0.613,1.403 -1.019,2.972 -1.219,4.708l21.901,-0c-0,-1.781 -0.245,-3.378 -0.735,-4.791c-0.489,-1.413 -1.179,-2.61 -2.07,-3.589c-0.89,-0.979 -1.958,-1.73 -3.205,-2.253c-1.246,-0.523 -2.626,-0.785 -4.139,-0.785Z" style="fill:#0a0d0f;fill-rule:nonzero;"/><path d="M212.084,57.545l-0,16.993l-8.981,0l0,-48.275l15.725,-0c3.227,-0 6.02,0.378 8.38,1.135c2.359,0.757 4.306,1.814 5.842,3.172c1.536,1.357 2.671,2.982 3.405,4.874c0.735,1.892 1.102,3.962 1.102,6.21c0,2.337 -0.389,4.479 -1.168,6.426c-0.779,1.948 -1.948,3.623 -3.506,5.025c-1.558,1.402 -3.505,2.493 -5.842,3.272c-2.337,0.779 -5.075,1.168 -8.213,1.168l-6.744,0Zm-0,-7.011l6.744,0c1.647,0 3.082,-0.206 4.307,-0.617c1.224,-0.412 2.236,-1.002 3.038,-1.77c0.801,-0.768 1.402,-1.703 1.802,-2.804c0.401,-1.102 0.601,-2.332 0.601,-3.689c0,-1.291 -0.2,-2.46 -0.601,-3.506c-0.4,-1.046 -1.001,-1.936 -1.802,-2.671c-0.802,-0.734 -1.814,-1.296 -3.038,-1.686c-1.225,-0.389 -2.66,-0.584 -4.307,-0.584l-6.744,0l-0,17.327Z" style="fill:#0a0d0f;fill-rule:nonzero;"/><path d="M269.254,74.538l-3.706,0c-0.779,0 -1.391,-0.117 -1.836,-0.35c-0.445,-0.234 -0.779,-0.707 -1.001,-1.419l-0.735,-2.437c-0.868,0.779 -1.719,1.463 -2.554,2.053c-0.835,0.59 -1.697,1.085 -2.587,1.486c-0.891,0.4 -1.836,0.701 -2.838,0.901c-1.002,0.2 -2.114,0.3 -3.339,0.3c-1.446,0 -2.782,-0.194 -4.006,-0.584c-1.224,-0.389 -2.276,-0.974 -3.155,-1.753c-0.879,-0.779 -1.563,-1.747 -2.053,-2.904c-0.49,-1.157 -0.734,-2.504 -0.734,-4.04c-0,-1.291 0.339,-2.565 1.018,-3.822c0.679,-1.258 1.808,-2.393 3.388,-3.406c1.581,-1.012 3.684,-1.853 6.31,-2.52c2.627,-0.668 5.887,-1.046 9.782,-1.135l0,-2.003c0,-2.293 -0.484,-3.99 -1.452,-5.092c-0.968,-1.101 -2.376,-1.652 -4.223,-1.652c-1.336,-0 -2.449,0.155 -3.339,0.467c-0.89,0.312 -1.664,0.662 -2.32,1.052c-0.657,0.389 -1.263,0.74 -1.82,1.051c-0.556,0.312 -1.168,0.468 -1.836,0.468c-0.556,-0 -1.035,-0.145 -1.435,-0.434c-0.401,-0.29 -0.724,-0.646 -0.969,-1.069l-1.502,-2.637c3.94,-3.606 8.691,-5.408 14.256,-5.408c2.003,-0 3.789,0.328 5.358,0.984c1.569,0.657 2.899,1.57 3.99,2.738c1.09,1.168 1.919,2.565 2.487,4.19c0.567,1.625 0.851,3.405 0.851,5.342l0,21.633Zm-16.025,-5.141c0.846,-0 1.625,-0.078 2.337,-0.234c0.712,-0.156 1.386,-0.389 2.02,-0.701c0.634,-0.311 1.246,-0.695 1.836,-1.152c0.59,-0.456 1.185,-0.996 1.786,-1.619l0,-5.776c-2.404,0.112 -4.412,0.318 -6.026,0.618c-1.613,0.301 -2.91,0.685 -3.889,1.152c-0.98,0.467 -1.675,1.013 -2.087,1.636c-0.412,0.623 -0.617,1.302 -0.617,2.036c-0,1.447 0.428,2.482 1.285,3.105c0.857,0.623 1.975,0.935 3.355,0.935Z" style="fill:#0a0d0f;fill-rule:nonzero;"/><path d="M277.381,74.538l0,-34.253l5.041,-0c1.069,-0 1.77,0.501 2.104,1.502l0.567,2.704c0.69,-0.712 1.419,-1.357 2.187,-1.936c0.768,-0.579 1.58,-1.079 2.437,-1.502c0.857,-0.423 1.775,-0.746 2.754,-0.968c0.98,-0.223 2.048,-0.334 3.205,-0.334c1.87,-0 3.528,0.317 4.975,0.951c1.446,0.634 2.654,1.525 3.622,2.671c0.968,1.146 1.703,2.515 2.203,4.106c0.501,1.592 0.752,3.345 0.752,5.259l-0,21.8l-8.247,0l0,-21.8c0,-2.093 -0.484,-3.712 -1.452,-4.858c-0.968,-1.146 -2.42,-1.719 -4.357,-1.719c-1.424,-0 -2.76,0.322 -4.006,0.968c-1.246,0.645 -2.426,1.524 -3.539,2.637l0,24.772l-8.246,0Z" style="fill:#0a0d0f;fill-rule:nonzero;"/><path d="M329.51,39.751c2.159,-0 4.145,0.345 5.959,1.035c1.814,0.69 3.378,1.697 4.691,3.021c1.313,1.324 2.337,2.949 3.071,4.874c0.735,1.926 1.102,4.123 1.102,6.594c0,0.623 -0.028,1.141 -0.083,1.552c-0.056,0.412 -0.156,0.735 -0.301,0.968c-0.144,0.234 -0.339,0.401 -0.584,0.501c-0.245,0.1 -0.556,0.151 -0.935,0.151l-21.166,-0c0.245,3.516 1.191,6.098 2.838,7.745c1.647,1.647 3.828,2.47 6.543,2.47c1.336,0 2.487,-0.155 3.456,-0.467c0.968,-0.312 1.813,-0.657 2.537,-1.035c0.723,-0.378 1.357,-0.723 1.903,-1.035c0.545,-0.311 1.074,-0.467 1.586,-0.467c0.333,-0 0.623,0.067 0.868,0.2c0.244,0.134 0.456,0.323 0.634,0.568l2.404,3.004c-0.913,1.069 -1.937,1.964 -3.072,2.688c-1.135,0.723 -2.32,1.302 -3.555,1.736c-1.236,0.434 -2.493,0.74 -3.773,0.918c-1.28,0.178 -2.52,0.267 -3.722,0.267c-2.382,0 -4.596,-0.395 -6.644,-1.185c-2.048,-0.79 -3.828,-1.959 -5.342,-3.506c-1.513,-1.546 -2.704,-3.461 -3.572,-5.742c-0.868,-2.281 -1.302,-4.924 -1.302,-7.929c-0,-2.337 0.378,-4.535 1.135,-6.594c0.757,-2.058 1.842,-3.85 3.255,-5.375c1.413,-1.524 3.138,-2.732 5.175,-3.622c2.036,-0.89 4.334,-1.335 6.894,-1.335Zm0.167,5.909c-2.404,-0 -4.285,0.679 -5.642,2.036c-1.358,1.358 -2.226,3.283 -2.604,5.776l15.491,0c-0,-1.068 -0.145,-2.075 -0.434,-3.021c-0.29,-0.946 -0.735,-1.775 -1.336,-2.488c-0.601,-0.712 -1.358,-1.274 -2.27,-1.685c-0.913,-0.412 -1.981,-0.618 -3.205,-0.618Z" style="fill:#0a0d0f;fill-rule:nonzero;"/><rect x="351.592" y="24.928" width="8.246" height="49.611" style="fill:#0a0d0f;fill-rule:nonzero;"/><rect x="0" y="-0" width="366.667" height="100" style="fill:none;"/><path d="M88.351,28.043c-0,-4.842 -5.354,-8.071 -9.55,-5.65l-29.577,17.134c-1.718,1.092 -2.864,3.158 -2.943,4.975l0,48.418c0,3.565 3.818,6.054 7.334,4.247l15.967,-9.309c2.285,-1.483 3.105,-3.478 3.105,-5.402c0,0 0.021,-2.922 0,-3.821c-0.189,-8.296 1.419,-12.714 8.25,-16.67c1.157,-0.67 2.896,-1.68 4.211,-2.439c1.316,-0.759 3.339,-2.562 3.339,-6.011l-0.136,-25.472Z" style="fill:#0a0d0f;"/><path d="M37.945,44.942c-0,-2.566 -1.593,-4.568 -3.121,-5.453c-0.017,-0.01 -0.018,-0.009 -15.781,-9.138c-3.856,-2.234 -7.53,1.065 -7.53,4.777l-0,36.209c-0,2.569 1.658,4.588 2.922,5.32c0.701,0.407 -0.151,-0.087 16.153,9.355c2.968,1.719 7.357,-0.436 7.357,-4.8c-0,-37.016 -0,-35.524 -0,-36.27Z" style="fill:#1e1f20;"/><path d="M50.086,3.383c-2.005,-1.207 -4.383,-1.363 -6.421,-0.212l-19.145,11.176c-3.121,1.808 -4.404,6.993 -0.945,8.996c9.287,5.379 12.698,7.356 15.009,8.694c2.1,1.216 4.72,1.284 6.82,0.068c6.18,-3.579 -6.209,3.528 19.258,-11.221c3.174,-1.839 3.873,-6.814 0.408,-8.821c-8.96,-5.19 -12.626,-7.26 -14.984,-8.68Z" style="fill:#1e1f20;"/></svg>