<?xml version="1.0" encoding="UTF-8"?>
<svg width="96px" height="92px" viewBox="0 0 96 92" version="1.1" xmlns="http://www.w3.org/2000/svg" xmlns:xlink="http://www.w3.org/1999/xlink">
    <title>Group 12</title>
    <g id="Microsites" stroke="none" stroke-width="1" fill="none" fill-rule="evenodd">
        <g id="Group-12" transform="translate(0.200000, 0.564971)" fill="#3083DC">
            <g id="Group-2-Copy" transform="translate(0.000000, 19.867029)" fill-rule="nonzero">
                <g id="TECH-ICONS">
                    <polygon id="Path" points="24.416 0.256 24.416 4.544 17.856 4.544 17.856 23.568 12.448 23.568 12.448 4.544 5.888 4.544 5.888 0.256"></polygon>
                    <polygon id="Path" points="41.664 0.256 41.664 4.416 32.096 4.416 32.096 9.856 39.424 9.856 39.424 13.856 32.096 13.856 32.096 19.408 41.664 19.408 41.664 23.568 26.656 23.568 26.656 0.256"></polygon>
                    <path d="M60.4,17.536 C60.528,17.536 60.656,17.56 60.784,17.608 C60.912,17.656 61.0346667,17.7386667 61.152,17.856 L63.296,20.112 C62.3573333,21.3386667 61.1813333,22.264 59.768,22.888 C58.3546667,23.512 56.6826667,23.824 54.752,23.824 C52.9813333,23.824 51.3946667,23.5226667 49.992,22.92 C48.5893333,22.3173333 47.4,21.4853333 46.424,20.424 C45.448,19.3626667 44.6986667,18.104 44.176,16.648 C43.6533333,15.192 43.392,13.6106667 43.392,11.904 C43.392,10.1653333 43.6906667,8.568 44.288,7.112 C44.8853333,5.656 45.72,4.4 46.792,3.344 C47.864,2.288 49.1466667,1.46666667 50.64,0.88 C52.1333333,0.293333333 53.7813333,0 55.584,0 C56.4586667,0 57.2826667,0.0773333333 58.056,0.232 C58.8293333,0.386666667 59.552,0.6 60.224,0.872 C60.896,1.144 61.5146667,1.46933333 62.08,1.848 C62.6453333,2.22666667 63.1466667,2.64533333 63.584,3.104 L61.76,5.552 C61.6426667,5.70133333 61.504,5.83733333 61.344,5.96 C61.184,6.08266667 60.96,6.144 60.672,6.144 C60.48,6.144 60.2986667,6.10133333 60.128,6.016 C59.9573333,5.93066667 59.776,5.82666667 59.584,5.704 C59.392,5.58133333 59.1813333,5.448 58.952,5.304 C58.7226667,5.16 58.4506667,5.02666667 58.136,4.904 C57.8213333,4.78133333 57.4533333,4.67733333 57.032,4.592 C56.6106667,4.50666667 56.1173333,4.464 55.552,4.464 C54.5706667,4.464 53.6746667,4.63733333 52.864,4.984 C52.0533333,5.33066667 51.3573333,5.82666667 50.776,6.472 C50.1946667,7.11733333 49.7413333,7.89866667 49.416,8.816 C49.0906667,9.73333333 48.928,10.7626667 48.928,11.904 C48.928,13.0986667 49.0906667,14.16 49.416,15.088 C49.7413333,16.016 50.184,16.7973333 50.744,17.432 C51.304,18.0666667 51.9573333,18.5493333 52.704,18.88 C53.4506667,19.2106667 54.2506667,19.376 55.104,19.376 C55.5946667,19.376 56.0426667,19.352 56.448,19.304 C56.8533333,19.256 57.2293333,19.1733333 57.576,19.056 C57.9226667,18.9386667 58.2533333,18.7866667 58.568,18.6 C58.8826667,18.4133333 59.2,18.1813333 59.52,17.904 C59.648,17.7973333 59.7866667,17.7093333 59.936,17.64 C60.0853333,17.5706667 60.24,17.536 60.4,17.536 Z" id="Path"></path>
                    <polygon id="Path" points="86.112 23.568 80.672 23.568 80.672 13.712 71.2 13.712 71.2 23.568 65.76 23.568 65.76 0.256 71.2 0.256 71.2 10 80.672 10 80.672 0.256 86.112 0.256"></polygon>
                    <polygon id="Path" points="5.44 52.568 0 52.568 0 29.256 5.44 29.256"></polygon>
                    <path d="M25.424,46.536 C25.552,46.536 25.68,46.56 25.808,46.608 C25.936,46.656 26.0586667,46.7386667 26.176,46.856 L28.32,49.112 C27.3813333,50.3386667 26.2053333,51.264 24.792,51.888 C23.3786667,52.512 21.7066667,52.824 19.776,52.824 C18.0053333,52.824 16.4186667,52.5226667 15.016,51.92 C13.6133333,51.3173333 12.424,50.4853333 11.448,49.424 C10.472,48.3626667 9.72266667,47.104 9.2,45.648 C8.67733333,44.192 8.416,42.6106667 8.416,40.904 C8.416,39.1653333 8.71466667,37.568 9.312,36.112 C9.90933333,34.656 10.744,33.4 11.816,32.344 C12.888,31.288 14.1706667,30.4666667 15.664,29.88 C17.1573333,29.2933333 18.8053333,29 20.608,29 C21.4826667,29 22.3066667,29.0773333 23.08,29.232 C23.8533333,29.3866667 24.576,29.6 25.248,29.872 C25.92,30.144 26.5386667,30.4693333 27.104,30.848 C27.6693333,31.2266667 28.1706667,31.6453333 28.608,32.104 L26.784,34.552 C26.6666667,34.7013333 26.528,34.8373333 26.368,34.96 C26.208,35.0826667 25.984,35.144 25.696,35.144 C25.504,35.144 25.3226667,35.1013333 25.152,35.016 C24.9813333,34.9306667 24.8,34.8266667 24.608,34.704 C24.416,34.5813333 24.2053333,34.448 23.976,34.304 C23.7466667,34.16 23.4746667,34.0266667 23.16,33.904 C22.8453333,33.7813333 22.4773333,33.6773333 22.056,33.592 C21.6346667,33.5066667 21.1413333,33.464 20.576,33.464 C19.5946667,33.464 18.6986667,33.6373333 17.888,33.984 C17.0773333,34.3306667 16.3813333,34.8266667 15.8,35.472 C15.2186667,36.1173333 14.7653333,36.8986667 14.44,37.816 C14.1146667,38.7333333 13.952,39.7626667 13.952,40.904 C13.952,42.0986667 14.1146667,43.16 14.44,44.088 C14.7653333,45.016 15.208,45.7973333 15.768,46.432 C16.328,47.0666667 16.9813333,47.5493333 17.728,47.88 C18.4746667,48.2106667 19.2746667,48.376 20.128,48.376 C20.6186667,48.376 21.0666667,48.352 21.472,48.304 C21.8773333,48.256 22.2533333,48.1733333 22.6,48.056 C22.9466667,47.9386667 23.2773333,47.7866667 23.592,47.6 C23.9066667,47.4133333 24.224,47.1813333 24.544,46.904 C24.672,46.7973333 24.8106667,46.7093333 24.96,46.64 C25.1093333,46.5706667 25.264,46.536 25.424,46.536 Z" id="Path"></path>
                    <path d="M53.792,40.904 C53.792,42.5893333 53.5013333,44.1573333 52.92,45.608 C52.3386667,47.0586667 51.52,48.32 50.464,49.392 C49.408,50.464 48.136,51.304 46.648,51.912 C45.16,52.52 43.5093333,52.824 41.696,52.824 C39.8826667,52.824 38.2293333,52.52 36.736,51.912 C35.2426667,51.304 33.9653333,50.464 32.904,49.392 C31.8426667,48.32 31.0213333,47.0586667 30.44,45.608 C29.8586667,44.1573333 29.568,42.5893333 29.568,40.904 C29.568,39.2186667 29.8586667,37.6506667 30.44,36.2 C31.0213333,34.7493333 31.8426667,33.4906667 32.904,32.424 C33.9653333,31.3573333 35.2426667,30.52 36.736,29.912 C38.2293333,29.304 39.8826667,29 41.696,29 C43.5093333,29 45.16,29.3066667 46.648,29.92 C48.136,30.5333333 49.408,31.3733333 50.464,32.44 C51.52,33.5066667 52.3386667,34.7653333 52.92,36.216 C53.5013333,37.6666667 53.792,39.2293333 53.792,40.904 Z M48.256,40.904 C48.256,39.752 48.1066667,38.7146667 47.808,37.792 C47.5093333,36.8693333 47.08,36.088 46.52,35.448 C45.96,34.808 45.2746667,34.3173333 44.464,33.976 C43.6533333,33.6346667 42.7306667,33.464 41.696,33.464 C40.6506667,33.464 39.72,33.6346667 38.904,33.976 C38.088,34.3173333 37.4,34.808 36.84,35.448 C36.28,36.088 35.8506667,36.8693333 35.552,37.792 C35.2533333,38.7146667 35.104,39.752 35.104,40.904 C35.104,42.0666667 35.2533333,43.1093333 35.552,44.032 C35.8506667,44.9546667 36.28,45.736 36.84,46.376 C37.4,47.016 38.088,47.504 38.904,47.84 C39.72,48.176 40.6506667,48.344 41.696,48.344 C42.7306667,48.344 43.6533333,48.176 44.464,47.84 C45.2746667,47.504 45.96,47.016 46.52,46.376 C47.08,45.736 47.5093333,44.9546667 47.808,44.032 C48.1066667,43.1093333 48.256,42.0666667 48.256,40.904 Z" id="Shape"></path>
                    <path d="M59.232,29.256 C59.4666667,29.256 59.664,29.2666667 59.824,29.288 C59.984,29.3093333 60.128,29.3493333 60.256,29.408 C60.384,29.4666667 60.5066667,29.5493333 60.624,29.656 C60.7413333,29.7626667 60.8746667,29.9066667 61.024,30.088 L72.096,44.088 C72.0533333,43.64 72.0213333,43.2053333 72,42.784 C71.9786667,42.3626667 71.968,41.9653333 71.968,41.592 L71.968,29.256 L76.736,29.256 L76.736,52.568 L73.92,52.568 C73.504,52.568 73.152,52.504 72.864,52.376 C72.576,52.248 72.2986667,52.0133333 72.032,51.672 L61.04,37.784 C61.072,38.1893333 61.0986667,38.5866667 61.12,38.976 C61.1413333,39.3653333 61.152,39.7306667 61.152,40.072 L61.152,52.568 L56.384,52.568 L56.384,29.256 L59.232,29.256 Z" id="Path"></path>
                    <path d="M93.568,33.992 C93.408,34.248 93.24,34.44 93.064,34.568 C92.888,34.696 92.6613333,34.76 92.384,34.76 C92.1386667,34.76 91.8746667,34.6826667 91.592,34.528 C91.3093333,34.3733333 90.9893333,34.2 90.632,34.008 C90.2746667,33.816 89.8666667,33.6426667 89.408,33.488 C88.9493333,33.3333333 88.4266667,33.256 87.84,33.256 C86.8266667,33.256 86.072,33.472 85.576,33.904 C85.08,34.336 84.832,34.92 84.832,35.656 C84.832,36.1253333 84.9813333,36.5146667 85.28,36.824 C85.5786667,37.1333333 85.9706667,37.4 86.456,37.624 C86.9413333,37.848 87.496,38.0533333 88.12,38.24 C88.744,38.4266667 89.3813333,38.6346667 90.032,38.864 C90.6826667,39.0933333 91.32,39.3626667 91.944,39.672 C92.568,39.9813333 93.1226667,40.376 93.608,40.856 C94.0933333,41.336 94.4853333,41.92 94.784,42.608 C95.0826667,43.296 95.232,44.1253333 95.232,45.096 C95.232,46.1733333 95.0453333,47.1813333 94.672,48.12 C94.2986667,49.0586667 93.7573333,49.8773333 93.048,50.576 C92.3386667,51.2746667 91.464,51.824 90.424,52.224 C89.384,52.624 88.2026667,52.824 86.88,52.824 C86.1546667,52.824 85.416,52.7493333 84.664,52.6 C83.912,52.4506667 83.184,52.24 82.48,51.968 C81.776,51.696 81.1146667,51.3733333 80.496,51 C79.8773333,50.6266667 79.3386667,50.2106667 78.88,49.752 L80.48,47.224 C80.5973333,47.032 80.7626667,46.8773333 80.976,46.76 C81.1893333,46.6426667 81.4186667,46.584 81.664,46.584 C81.984,46.584 82.3066667,46.6853333 82.632,46.888 C82.9573333,47.0906667 83.3253333,47.3146667 83.736,47.56 C84.1466667,47.8053333 84.6186667,48.0293333 85.152,48.232 C85.6853333,48.4346667 86.3146667,48.536 87.04,48.536 C88.0213333,48.536 88.784,48.32 89.328,47.888 C89.872,47.456 90.144,46.7706667 90.144,45.832 C90.144,45.288 89.9946667,44.8453333 89.696,44.504 C89.3973333,44.1626667 89.0053333,43.88 88.52,43.656 C88.0346667,43.432 87.4826667,43.2346667 86.864,43.064 C86.2453333,42.8933333 85.6106667,42.704 84.96,42.496 C84.3093333,42.288 83.6746667,42.032 83.056,41.728 C82.4373333,41.424 81.8853333,41.024 81.4,40.528 C80.9146667,40.032 80.5226667,39.4133333 80.224,38.672 C79.9253333,37.9306667 79.776,37.016 79.776,35.928 C79.776,35.0533333 79.952,34.2 80.304,33.368 C80.656,32.536 81.1733333,31.7946667 81.856,31.144 C82.5386667,30.4933333 83.376,29.9733333 84.368,29.584 C85.36,29.1946667 86.496,29 87.776,29 C88.4906667,29 89.1866667,29.056 89.864,29.168 C90.5413333,29.28 91.184,29.4453333 91.792,29.664 C92.4,29.8826667 92.968,30.144 93.496,30.448 C94.024,30.752 94.496,31.096 94.912,31.48 L93.568,33.992 Z" id="Path"></path>
                </g>
            </g>
            <path d="M51.8,71.4350288 C55.1137085,71.4350288 57.8,74.1213203 57.8,77.4350288 C57.8,80.7487373 55.1137085,83.4350288 51.8,83.4350288 C49.1878187,83.4350288 46.9655203,81.7657412 46.1416539,79.4357147 L33.8,79.4350288 C32.6954305,79.4350288 31.8,78.5395983 31.8,77.4350288 C31.8,76.3304593 32.6954305,75.4350288 33.8,75.4350288 L46.1412977,75.4353507 C46.9648796,73.1047978 49.1874421,71.4350288 51.8,71.4350288 Z" id="Combined-Shape" opacity="0.6" transform="translate(44.800000, 77.435029) rotate(-315.000000) translate(-44.800000, -77.435029) "></path>
            <path d="M51.8,7.43502884 C55.1137085,7.43502884 57.8,10.1213203 57.8,13.4350288 C57.8,16.7487373 55.1137085,19.4350288 51.8,19.4350288 C49.1878187,19.4350288 46.9655203,17.7657412 46.1416539,15.4357147 L33.8,15.4350288 C32.6954305,15.4350288 31.8,14.5395983 31.8,13.4350288 C31.8,12.3304593 32.6954305,11.4350288 33.8,11.4350288 L46.1412977,11.4353507 C46.9648796,9.10479781 49.1874421,7.43502884 51.8,7.43502884 Z" id="Combined-Shape-Copy" opacity="0.6" transform="translate(44.800000, 13.435029) rotate(-135.000000) translate(-44.800000, -13.435029) "></path>
        </g>
    </g>
</svg>